<svg id="visual" viewBox="0 0 3456 1000" width="3456" height="1000" xmlns="http://www.w3.org/2000/svg" xmlns:xlink="http://www.w3.org/1999/xlink" version="1.1"><path d="M0 730L82.3 697.5C164.7 665 329.3 600 493.8 567.5C658.3 535 822.7 535 987.2 540.2C1151.7 545.3 1316.3 555.7 1481 567C1645.7 578.3 1810.3 590.7 1975 634.7C2139.7 678.7 2304.3 754.3 2468.8 783.5C2633.3 812.7 2797.7 795.3 2962.2 754.5C3126.7 713.7 3291.3 649.3 3373.7 617.2L3456 585L3456 0L3373.7 0C3291.3 0 3126.7 0 2962.2 0C2797.7 0 2633.3 0 2468.8 0C2304.3 0 2139.7 0 1975 0C1810.3 0 1645.7 0 1481 0C1316.3 0 1151.7 0 987.2 0C822.7 0 658.3 0 493.8 0C329.3 0 164.7 0 82.3 0L0 0Z" fill="#e3064f"></path><path d="M0 537L82.3 529.7C164.7 522.3 329.3 507.7 493.8 523C658.3 538.3 822.7 583.7 987.2 585.5C1151.7 587.3 1316.3 545.7 1481 526.5C1645.7 507.3 1810.3 510.7 1975 500.5C2139.7 490.3 2304.3 466.7 2468.8 460.3C2633.3 454 2797.7 465 2962.2 480.2C3126.7 495.3 3291.3 514.7 3373.7 524.3L3456 534L3456 0L3373.7 0C3291.3 0 3126.7 0 2962.2 0C2797.7 0 2633.3 0 2468.8 0C2304.3 0 2139.7 0 1975 0C1810.3 0 1645.7 0 1481 0C1316.3 0 1151.7 0 987.2 0C822.7 0 658.3 0 493.8 0C329.3 0 164.7 0 82.3 0L0 0Z" fill="#b30846"></path><path d="M0 369L82.3 394C164.7 419 329.3 469 493.8 465.8C658.3 462.7 822.7 406.3 987.2 405.3C1151.7 404.3 1316.3 458.7 1481 470.5C1645.7 482.3 1810.3 451.7 1975 442.2C2139.7 432.7 2304.3 444.3 2468.8 426C2633.3 407.7 2797.7 359.3 2962.2 361.7C3126.7 364 3291.3 417 3373.7 443.5L3456 470L3456 0L3373.7 0C3291.3 0 3126.7 0 2962.2 0C2797.7 0 2633.3 0 2468.8 0C2304.3 0 2139.7 0 1975 0C1810.3 0 1645.7 0 1481 0C1316.3 0 1151.7 0 987.2 0C822.7 0 658.3 0 493.8 0C329.3 0 164.7 0 82.3 0L0 0Z" fill="#850c3a"></path><path d="M0 317L82.3 305.3C164.7 293.7 329.3 270.3 493.8 273.3C658.3 276.3 822.7 305.7 987.2 329.2C1151.7 352.7 1316.3 370.3 1481 350C1645.7 329.7 1810.3 271.3 1975 272.2C2139.7 273 2304.3 333 2468.8 361.5C2633.3 390 2797.7 387 2962.2 372.5C3126.7 358 3291.3 332 3373.7 319L3456 306L3456 0L3373.7 0C3291.3 0 3126.7 0 2962.2 0C2797.7 0 2633.3 0 2468.8 0C2304.3 0 2139.7 0 1975 0C1810.3 0 1645.7 0 1481 0C1316.3 0 1151.7 0 987.2 0C822.7 0 658.3 0 493.8 0C329.3 0 164.7 0 82.3 0L0 0Z" fill="#590c2b"></path><path d="M0 88L82.3 92.8C164.7 97.7 329.3 107.3 493.8 129.5C658.3 151.7 822.7 186.3 987.2 200.3C1151.7 214.3 1316.3 207.7 1481 201.8C1645.7 196 1810.3 191 1975 187.3C2139.7 183.7 2304.3 181.3 2468.8 184.5C2633.3 187.7 2797.7 196.3 2962.2 185.8C3126.7 175.3 3291.3 145.7 3373.7 130.8L3456 116L3456 0L3373.7 0C3291.3 0 3126.7 0 2962.2 0C2797.7 0 2633.3 0 2468.8 0C2304.3 0 2139.7 0 1975 0C1810.3 0 1645.7 0 1481 0C1316.3 0 1151.7 0 987.2 0C822.7 0 658.3 0 493.8 0C329.3 0 164.7 0 82.3 0L0 0Z" fill="#300919"></path></svg>