<svg id="visual" viewBox="0 0 3456 2234" width="3456" height="2234" xmlns="http://www.w3.org/2000/svg" xmlns:xlink="http://www.w3.org/1999/xlink" version="1.1"><path d="M0 1382L82.3 1415.5C164.7 1449 329.3 1516 493.8 1509.2C658.3 1502.3 822.7 1421.7 987.2 1394.3C1151.7 1367 1316.3 1393 1481 1391.3C1645.7 1389.7 1810.3 1360.3 1975 1390.7C2139.7 1421 2304.3 1511 2468.8 1564.3C2633.3 1617.7 2797.7 1634.3 2962.2 1630.7C3126.7 1627 3291.3 1603 3373.7 1591L3456 1579L3456 2235L3373.7 2235C3291.3 2235 3126.7 2235 2962.2 2235C2797.7 2235 2633.3 2235 2468.8 2235C2304.3 2235 2139.7 2235 1975 2235C1810.3 2235 1645.7 2235 1481 2235C1316.3 2235 1151.7 2235 987.2 2235C822.7 2235 658.3 2235 493.8 2235C329.3 2235 164.7 2235 82.3 2235L0 2235Z" fill="#300919"></path><path d="M0 1663L82.3 1670.5C164.7 1678 329.3 1693 493.8 1666.7C658.3 1640.3 822.7 1572.7 987.2 1560.7C1151.7 1548.7 1316.3 1592.3 1481 1589.2C1645.7 1586 1810.3 1536 1975 1525.8C2139.7 1515.7 2304.3 1545.3 2468.8 1570.2C2633.3 1595 2797.7 1615 2962.2 1649.8C3126.7 1684.7 3291.3 1734.3 3373.7 1759.2L3456 1784L3456 2235L3373.7 2235C3291.3 2235 3126.7 2235 2962.2 2235C2797.7 2235 2633.3 2235 2468.8 2235C2304.3 2235 2139.7 2235 1975 2235C1810.3 2235 1645.7 2235 1481 2235C1316.3 2235 1151.7 2235 987.2 2235C822.7 2235 658.3 2235 493.8 2235C329.3 2235 164.7 2235 82.3 2235L0 2235Z" fill="#590c2b"></path><path d="M0 1644L82.3 1667.2C164.7 1690.3 329.3 1736.7 493.8 1759C658.3 1781.3 822.7 1779.7 987.2 1794.2C1151.7 1808.7 1316.3 1839.3 1481 1848.2C1645.7 1857 1810.3 1844 1975 1824.3C2139.7 1804.7 2304.3 1778.3 2468.8 1753.3C2633.3 1728.3 2797.7 1704.7 2962.2 1707.8C3126.7 1711 3291.3 1741 3373.7 1756L3456 1771L3456 2235L3373.7 2235C3291.3 2235 3126.7 2235 2962.2 2235C2797.7 2235 2633.3 2235 2468.8 2235C2304.3 2235 2139.7 2235 1975 2235C1810.3 2235 1645.7 2235 1481 2235C1316.3 2235 1151.7 2235 987.2 2235C822.7 2235 658.3 2235 493.8 2235C329.3 2235 164.7 2235 82.3 2235L0 2235Z" fill="#850c3a"></path><path d="M0 1985L82.3 1988.5C164.7 1992 329.3 1999 493.8 1976C658.3 1953 822.7 1900 987.2 1865.3C1151.7 1830.7 1316.3 1814.3 1481 1839.8C1645.7 1865.3 1810.3 1932.7 1975 1948.2C2139.7 1963.7 2304.3 1927.3 2468.8 1902.8C2633.3 1878.3 2797.7 1865.7 2962.2 1863C3126.7 1860.3 3291.3 1867.7 3373.7 1871.3L3456 1875L3456 2235L3373.7 2235C3291.3 2235 3126.7 2235 2962.2 2235C2797.7 2235 2633.3 2235 2468.8 2235C2304.3 2235 2139.7 2235 1975 2235C1810.3 2235 1645.7 2235 1481 2235C1316.3 2235 1151.7 2235 987.2 2235C822.7 2235 658.3 2235 493.8 2235C329.3 2235 164.7 2235 82.3 2235L0 2235Z" fill="#b30846"></path><path d="M0 2092L82.3 2077.8C164.7 2063.7 329.3 2035.3 493.8 2020.5C658.3 2005.7 822.7 2004.3 987.2 2012.7C1151.7 2021 1316.3 2039 1481 2043.3C1645.7 2047.7 1810.3 2038.3 1975 2021.7C2139.7 2005 2304.3 1981 2468.8 1969.2C2633.3 1957.3 2797.7 1957.7 2962.2 1962.8C3126.7 1968 3291.3 1978 3373.7 1983L3456 1988L3456 2235L3373.7 2235C3291.3 2235 3126.7 2235 2962.2 2235C2797.7 2235 2633.3 2235 2468.8 2235C2304.3 2235 2139.7 2235 1975 2235C1810.3 2235 1645.7 2235 1481 2235C1316.3 2235 1151.7 2235 987.2 2235C822.7 2235 658.3 2235 493.8 2235C329.3 2235 164.7 2235 82.3 2235L0 2235Z" fill="#e3064f"></path></svg>