<svg id="visual" viewBox="0 0 3456 2234" width="3456" height="2234" xmlns="http://www.w3.org/2000/svg" xmlns:xlink="http://www.w3.org/1999/xlink" version="1.1"><path d="M0 850L82.3 816.5C164.7 783 329.3 716 493.8 722.8C658.3 729.7 822.7 810.3 987.2 837.7C1151.7 865 1316.3 839 1481 840.7C1645.7 842.3 1810.3 871.7 1975 841.3C2139.7 811 2304.3 721 2468.8 667.7C2633.3 614.3 2797.7 597.7 2962.2 601.3C3126.7 605 3291.3 629 3373.7 641L3456 653L3456 0L3373.7 0C3291.3 0 3126.7 0 2962.2 0C2797.7 0 2633.3 0 2468.8 0C2304.3 0 2139.7 0 1975 0C1810.3 0 1645.7 0 1481 0C1316.3 0 1151.7 0 987.2 0C822.7 0 658.3 0 493.8 0C329.3 0 164.7 0 82.3 0L0 0Z" fill="#e3064f"></path><path d="M0 569L82.3 561.5C164.7 554 329.3 539 493.8 565.3C658.3 591.7 822.7 659.3 987.2 671.3C1151.7 683.3 1316.3 639.7 1481 642.8C1645.7 646 1810.3 696 1975 706.2C2139.7 716.3 2304.3 686.7 2468.8 661.8C2633.3 637 2797.7 617 2962.2 582.2C3126.7 547.3 3291.3 497.7 3373.7 472.8L3456 448L3456 0L3373.7 0C3291.3 0 3126.7 0 2962.2 0C2797.7 0 2633.3 0 2468.8 0C2304.3 0 2139.7 0 1975 0C1810.3 0 1645.7 0 1481 0C1316.3 0 1151.7 0 987.2 0C822.7 0 658.3 0 493.8 0C329.3 0 164.7 0 82.3 0L0 0Z" fill="#b30846"></path><path d="M0 588L82.3 564.8C164.7 541.7 329.3 495.3 493.8 473C658.3 450.7 822.7 452.3 987.2 437.8C1151.7 423.3 1316.3 392.7 1481 383.8C1645.7 375 1810.3 388 1975 407.7C2139.7 427.3 2304.3 453.7 2468.8 478.7C2633.3 503.7 2797.7 527.3 2962.2 524.2C3126.7 521 3291.3 491 3373.7 476L3456 461L3456 0L3373.7 0C3291.3 0 3126.7 0 2962.2 0C2797.7 0 2633.3 0 2468.8 0C2304.3 0 2139.7 0 1975 0C1810.3 0 1645.7 0 1481 0C1316.3 0 1151.7 0 987.2 0C822.7 0 658.3 0 493.8 0C329.3 0 164.7 0 82.3 0L0 0Z" fill="#850c3a"></path><path d="M0 247L82.3 243.5C164.7 240 329.3 233 493.8 256C658.3 279 822.7 332 987.2 366.7C1151.7 401.3 1316.3 417.7 1481 392.2C1645.7 366.7 1810.3 299.3 1975 283.8C2139.7 268.3 2304.3 304.7 2468.8 329.2C2633.3 353.7 2797.7 366.3 2962.2 369C3126.7 371.7 3291.3 364.3 3373.7 360.7L3456 357L3456 0L3373.7 0C3291.3 0 3126.7 0 2962.2 0C2797.7 0 2633.3 0 2468.8 0C2304.3 0 2139.7 0 1975 0C1810.3 0 1645.7 0 1481 0C1316.3 0 1151.7 0 987.2 0C822.7 0 658.3 0 493.8 0C329.3 0 164.7 0 82.3 0L0 0Z" fill="#590c2b"></path><path d="M0 140L82.3 154.2C164.7 168.3 329.3 196.7 493.8 211.5C658.3 226.3 822.7 227.7 987.2 219.3C1151.7 211 1316.3 193 1481 188.7C1645.7 184.3 1810.3 193.7 1975 210.3C2139.7 227 2304.3 251 2468.8 262.8C2633.3 274.7 2797.7 274.3 2962.2 269.2C3126.7 264 3291.3 254 3373.7 249L3456 244L3456 0L3373.7 0C3291.3 0 3126.7 0 2962.2 0C2797.7 0 2633.3 0 2468.8 0C2304.3 0 2139.7 0 1975 0C1810.3 0 1645.7 0 1481 0C1316.3 0 1151.7 0 987.2 0C822.7 0 658.3 0 493.8 0C329.3 0 164.7 0 82.3 0L0 0Z" fill="#300919"></path></svg>